<svg xmlns="http://www.w3.org/2000/svg" width="25" height="25" viewBox="0 0 25 25" fill="none">
  <path fill-rule="evenodd" clip-rule="evenodd"
    d="M4.76587 5.5C4.76587 4.94772 5.21358 4.5 5.76587 4.5L19.7659 4.5C20.3182 4.5 20.7659 4.94772 20.7659 5.5C20.7659 6.05229 20.3182 6.5 19.7659 6.5L5.76587 6.5C5.21358 6.5 4.76587 6.05228 4.76587 5.5Z"
    fill="#A7A9AD"></path>
  <path fill-rule="evenodd" clip-rule="evenodd"
    d="M4.76587 12.5C4.76587 11.9477 5.21358 11.5 5.76587 11.5L15.7659 11.5C16.3182 11.5 16.7659 11.9477 16.7659 12.5C16.7659 13.0523 16.3182 13.5 15.7659 13.5L5.76587 13.5C5.21358 13.5 4.76587 13.0523 4.76587 12.5Z"
    fill="#A7A9AD"></path>
  <path fill-rule="evenodd" clip-rule="evenodd"
    d="M4.76587 19.5C4.76587 18.9477 5.21358 18.5 5.76587 18.5L12.7659 18.5C13.3182 18.5 13.7659 18.9477 13.7659 19.5C13.7659 20.0523 13.3182 20.5 12.7659 20.5L5.76587 20.5C5.21358 20.5 4.76587 20.0523 4.76587 19.5Z"
    fill="#A7A9AD"></path>
</svg>