<svg width="24" height="24" viewBox="0 0 24 24" fill="none" xmlns="http://www.w3.org/2000/svg">
<path d="M15.7228 13.4622C15.2673 13.9095 14.727 14.2614 14.1337 14.4972C13.5404 14.733 12.9061 14.8479 12.2678 14.8354C11.9124 14.8354 11.5553 14.8354 11.2 14.8354C11.1411 14.8316 11.0822 14.8412 11.0277 14.8637C10.9731 14.8862 10.9245 14.9208 10.8854 14.9649C10.0841 15.8088 9.27535 16.6471 8.4796 17.4873C8.40524 17.575 8.31288 17.6457 8.20878 17.6945C8.10469 17.7434 7.99129 17.7693 7.87631 17.7704C7.78011 17.7702 7.68492 17.7508 7.59634 17.7132C7.50776 17.6757 7.42758 17.6208 7.36051 17.5519C7.29344 17.4829 7.24084 17.4012 7.20579 17.3116C7.17074 17.222 7.15396 17.1263 7.15643 17.0302C7.15643 16.3307 7.15643 15.6318 7.15643 14.9335C7.15643 14.8002 7.11941 14.7484 6.98432 14.7225C5.01159 14.2154 3.80871 12.9293 3.22392 11.0213C3.13036 10.6609 3.05562 10.2958 3 9.92761L3 8.91349C3.03568 8.5907 3.09757 8.27134 3.18506 7.95859C3.66806 6.20423 4.7081 4.93287 6.44025 4.27221C6.93817 4.08763 7.46558 3.99544 7.99659 4.00017C9.39009 4.00017 10.7854 4.00017 12.1808 4.00017C14.1276 3.99092 15.584 4.857 16.5833 6.47996C17.2405 7.57266 17.5128 8.85395 17.3568 10.1195C17.2009 11.385 16.6256 12.5618 15.7228 13.4622Z" fill="#57C1FA"/>
<path d="M20.1253 10.7382C19.6112 10.2758 18.9766 9.96849 18.2951 9.85181C18.2951 9.90177 18.2821 9.93138 18.2784 9.95914C18.2167 10.8523 17.9643 11.7219 17.5382 12.5093C16.3945 14.5819 14.6605 15.7145 12.2566 15.7441C12.0031 15.7441 11.7495 15.7441 11.496 15.7441C11.2887 15.7441 11.1962 15.9032 11.3017 16.0753C11.8865 17.0302 12.7044 17.6835 13.824 17.8778C14.3084 17.9372 14.7963 17.9613 15.2841 17.95C15.3403 17.9465 15.3964 17.9559 15.4484 17.9774C15.5003 17.9989 15.5467 18.0319 15.5839 18.074C15.9096 18.4219 16.2428 18.7624 16.5722 19.1066C16.8257 19.3712 17.0774 19.6414 17.3383 19.9024C17.4487 20.029 17.6047 20.1067 17.7722 20.1185C17.9398 20.1303 18.1051 20.0752 18.2321 19.9653C18.3087 19.8956 18.3684 19.8094 18.4066 19.7132C18.4447 19.617 18.4604 19.5133 18.4524 19.4101C18.4524 18.9715 18.4524 18.5311 18.4524 18.0925C18.4524 17.9352 18.4949 17.8797 18.6504 17.8204C19.0341 17.698 19.4019 17.5303 19.7459 17.3208C21.9259 15.8218 22.1165 12.5074 20.1253 10.7382Z" fill="#57C1FA"/>
</svg>
