<svg xmlns="http://www.w3.org/2000/svg" width="19" height="18" viewBox="0 0 19 18" fill="#DEDEDE">
  <path
    d="M15.7667 4.28033C16.0596 3.98744 16.0596 3.51256 15.7667 3.21967C15.4738 2.92678 14.9989 2.92678 14.706 3.21967L9.98633 7.93934L5.26666 3.21967C4.97377 2.92678 4.49889 2.92678 4.206 3.21967C3.9131 3.51256 3.9131 3.98744 4.206 4.28033L8.92567 9L4.206 13.7197C3.9131 14.0126 3.9131 14.4874 4.206 14.7803C4.49889 15.0732 4.97377 15.0732 5.26666 14.7803L9.98633 10.0607L14.706 14.7803C14.9989 15.0732 15.4738 15.0732 15.7667 14.7803C16.0596 14.4874 16.0596 14.0126 15.7667 13.7197L11.047 9L15.7667 4.28033Z"></path>
</svg>