<svg width="18" height="18" viewBox="0 0 18 18" fill="none" xmlns="http://www.w3.org/2000/svg">
<g clip-path="url(#clip0_2365_118)">
<g clip-path="url(#clip1_2365_118)">
<path d="M-3 0.0126953H24.9454V18.0127H-3V0.0126953Z" fill="white"/>
<path d="M-3 0.0126953H24.9454V4.8127H-3V0.0126953ZM-3 13.2127H24.9454V18.0127H-3V13.2127Z" fill="#D03433"/>
<path d="M-3 4.802H24.9454V13.2231H-3V4.802Z" fill="#FBCA46"/>
<path d="M6.68799 8.4126H7.93001V9.0126H6.68799V8.4126V8.4126Z" fill="white"/>
<path d="M5.94248 10.2127C5.94248 10.5727 6.31508 10.8127 6.68769 10.8127C7.06029 10.8127 7.4329 10.5727 7.4329 10.2127L7.5571 8.41274H5.81827L5.94248 10.2127V10.2127ZM5.19727 8.41274C5.19727 8.05274 5.44567 7.81274 5.69407 7.81274H7.5571C7.92971 7.81274 8.17811 8.05274 8.17811 8.29274V8.41274L8.05391 10.2127C7.92971 10.9327 7.4329 11.4127 6.68769 11.4127C5.94248 11.4127 5.44567 10.9327 5.32147 10.2127L5.19727 8.41274Z" fill="#A41517"/>
<path d="M5.44555 9.0127H7.92958V9.6127H7.30858L6.68757 10.8127L6.06656 9.6127H5.44555V9.0127V9.0127ZM3.58252 7.2127H4.82454V11.4127H3.58252V7.2127ZM8.55059 7.2127H9.79261V11.4127H8.55059V7.2127ZM5.44555 6.6127C5.44555 6.2527 5.69395 6.0127 6.06656 6.0127H7.30858C7.68118 6.0127 7.92958 6.2527 7.92958 6.6127V6.8527C7.92958 7.0927 7.80538 7.2127 7.55698 7.2127H5.69395C5.56975 7.2127 5.44555 7.0927 5.44555 6.9727V6.6127V6.6127Z" fill="#A41517"/>
</g>
<mask id="mask0_2365_118" style="mask-type:luminance" maskUnits="userSpaceOnUse" x="0" y="0" width="18" height="18">
<path d="M18 9C18 4.02944 13.9706 0 9 0C4.02944 0 0 4.02944 0 9C0 13.9706 4.02944 18 9 18C13.9706 18 18 13.9706 18 9Z" fill="white"/>
</mask>
<g mask="url(#mask0_2365_118)">
</g>
</g>
<defs>
<clipPath id="clip0_2365_118">
<rect width="18" height="18" rx="9" fill="white"/>
</clipPath>
<clipPath id="clip1_2365_118">
<rect width="28" height="18" fill="white" transform="translate(-3)"/>
</clipPath>
</defs>
</svg>
