<svg width="20" height="16" viewBox="0 0 16 16" xmlns="http://www.w3.org/2000/svg" fill="#A7A9AD"
  classes="fill-specialGrayBorder">
  <g clip-path="url(#clip0_1541_15024)">
    <path
      d="M7.99999 2.6665C10.86 2.6665 13.242 4.28584 15.11 7.43584L15.2567 7.6885L15.2867 7.75517L15.3067 7.8105L15.316 7.84717L15.3253 7.90184L15.3327 7.9685V8.04184L15.3233 8.11584C15.3189 8.14059 15.3132 8.16508 15.306 8.18917L15.28 8.26117L15.256 8.31117L15.2453 8.33117C13.4027 11.5552 11.0453 13.2512 8.20866 13.3305L7.99999 13.3332C5.06932 13.3332 2.64199 11.6338 0.754655 8.3305C0.697128 8.22979 0.66687 8.11582 0.66687 7.99984C0.66687 7.88386 0.697128 7.76988 0.754655 7.66917C2.64199 4.36584 5.06932 2.6665 7.99999 2.6665ZM7.99999 5.99984C7.46956 5.99984 6.96085 6.21055 6.58577 6.58562C6.2107 6.9607 5.99999 7.4694 5.99999 7.99984C5.99999 8.53027 6.2107 9.03898 6.58577 9.41405C6.96085 9.78912 7.46956 9.99984 7.99999 9.99984C8.53042 9.99984 9.03913 9.78912 9.4142 9.41405C9.78928 9.03898 9.99999 8.53027 9.99999 7.99984C9.99999 7.4694 9.78928 6.9607 9.4142 6.58562C9.03913 6.21055 8.53042 5.99984 7.99999 5.99984Z"></path>
  </g>
  <defs>
    <clipPath id="clip0_1541_15024">
      <rect width="16" height="16" fill="white"></rect>
    </clipPath>
  </defs>
</svg>