<svg xmlns="http://www.w3.org/2000/svg" width="18" height="18" viewBox="0 0 18 18" fill="none">
  <rect width="18" height="18" rx="9" fill="white"></rect>
  <path
    d="M1.86097 3.52063C1.15402 4.44042 0.620941 5.50056 0.310547 6.65224H4.99259L1.86097 3.52063Z"
    fill="#0052B4"></path>
  <path d="M17.6908 6.65209C17.3804 5.50044 16.8473 4.4403 16.1403 3.52051L13.0088 6.65209H17.6908Z"
    fill="#0052B4"></path>
  <path
    d="M0.310547 11.3479C0.620977 12.4995 1.15405 13.5597 1.86097 14.4794L4.99248 11.3479H0.310547Z"
    fill="#0052B4"></path>
  <path
    d="M14.4802 1.86052C13.5604 1.15356 12.5003 0.620488 11.3486 0.310059V4.99206L14.4802 1.86052Z"
    fill="#0052B4"></path>
  <path
    d="M3.52148 16.1393C4.44128 16.8463 5.50141 17.3794 6.65306 17.6898V13.0078L3.52148 16.1393Z"
    fill="#0052B4"></path>
  <path
    d="M6.65303 0.310059C5.50138 0.620488 4.44124 1.15356 3.52148 1.86048L6.65303 4.99203V0.310059Z"
    fill="#0052B4"></path>
  <path
    d="M11.3486 17.6898C12.5003 17.3794 13.5604 16.8463 14.4802 16.1394L11.3486 13.0078V17.6898Z"
    fill="#0052B4"></path>
  <path
    d="M13.0088 11.3477L16.1403 14.4792C16.8473 13.5595 17.3804 12.4993 17.6908 11.3477H13.0088Z"
    fill="#0052B4"></path>
  <path
    d="M17.9238 7.8261H10.174H10.1739V0.0761836C9.78964 0.0261563 9.39786 0 9 0C8.60207 0 8.21036 0.0261563 7.8261 0.0761836V7.82603V7.82606H0.0761836C0.0261563 8.21036 0 8.60214 0 9C0 9.39793 0.0261563 9.78964 0.0761836 10.1739H7.82603H7.82606V17.9238C8.21036 17.9738 8.60207 18 9 18C9.39786 18 9.78964 17.9739 10.1739 17.9238V10.174V10.1739H17.9238C17.9738 9.78964 18 9.39793 18 9C18 8.60214 17.9738 8.21036 17.9238 7.8261V7.8261Z"
    fill="#D80027"></path>
  <path
    d="M11.3478 11.3479L15.3639 15.364C15.5487 15.1793 15.7249 14.9863 15.893 14.7862L12.4546 11.3478H11.3478V11.3479Z"
    fill="#D80027"></path>
  <path
    d="M6.65189 11.3477H6.65182L2.63574 15.3637C2.82038 15.5484 3.01343 15.7246 3.21354 15.8928L6.65189 12.4543V11.3477Z"
    fill="#D80027"></path>
  <path
    d="M6.65256 6.65244V6.65237L2.63645 2.63623C2.45174 2.82087 2.27554 3.01391 2.10742 3.21402L5.54581 6.65241H6.65256V6.65244Z"
    fill="#D80027"></path>
  <path
    d="M11.3478 6.65223L15.364 2.63605C15.1793 2.45134 14.9863 2.27514 14.7862 2.10706L11.3478 5.54544V6.65223Z"
    fill="#D80027"></path>
</svg>