<svg xmlns="http://www.w3.org/2000/svg" width="19" height="19" viewBox="0 0 19 19" fill="none">
  <g clip-path="url(#clip0_717_31079)">
    <path
      d="M18.8962 9.32634C18.8962 8.58889 18.8349 8.05074 18.7024 7.49268H10.085V10.8212H15.1432C15.0413 11.6483 14.4906 12.894 13.2668 13.7311L13.2496 13.8426L15.9743 15.9052L16.1631 15.9236C17.8967 14.359 18.8962 12.0569 18.8962 9.32634Z"
      fill="#4285F4"></path>
    <path
      d="M10.0841 18.0961C12.5622 18.0961 14.6426 17.2988 16.1622 15.9236L13.2659 13.7311C12.4909 14.2593 11.4506 14.628 10.0841 14.628C7.65697 14.628 5.59695 13.0634 4.86261 10.9009L4.75498 10.9098L1.92182 13.0524L1.88477 13.1531C3.39408 16.083 6.49433 18.0961 10.0841 18.0961Z"
      fill="#34A853"></path>
    <path
      d="M4.8631 10.9009C4.66934 10.3429 4.5572 9.74488 4.5572 9.12704C4.5572 8.50913 4.66934 7.91121 4.85291 7.35314L4.84777 7.23429L1.97911 5.05725L1.88525 5.10088C1.26319 6.3167 0.90625 7.68202 0.90625 9.12704C0.90625 10.5721 1.26319 11.9373 1.88525 13.1531L4.8631 10.9009Z"
      fill="#FBBC05"></path>
    <path
      d="M10.0841 3.62598C11.8076 3.62598 12.9702 4.35347 13.6331 4.96141L16.2234 2.48992C14.6325 1.04491 12.5622 0.157959 10.0841 0.157959C6.49433 0.157959 3.39408 2.171 1.88477 5.10088L4.85242 7.35315C5.59695 5.19061 7.65697 3.62598 10.0841 3.62598Z"
      fill="#EB4335"></path>
  </g>
  <defs>
    <clipPath id="clip0_717_31079">
      <rect width="18" height="18" fill="white" transform="translate(0.905273 0.157959)"></rect>
    </clipPath>
  </defs>
</svg>