<svg xmlns="http://www.w3.org/2000/svg" width="20" height="21" viewBox="0 0 20 21" fill="#7E859F">
  <path
    d="M11.6667 10.4736L8.33335 7.1403V9.6403H1.66669V11.307H8.33335V13.807M18.3334 10.4736C18.3337 12.4649 17.6211 14.3905 16.3244 15.9017C15.0278 17.4129 13.2328 18.4099 11.2646 18.7121C9.29643 19.0142 7.28508 18.6017 5.59479 17.549C3.9045 16.4964 2.64701 14.8733 2.05002 12.9736H3.82502C4.40519 14.4079 5.46612 15.5956 6.82599 16.3334C8.18586 17.0712 9.76 17.3131 11.2786 17.0175C12.7973 16.722 14.1658 15.9075 15.1498 14.7136C16.1338 13.5197 16.6719 12.0208 16.6719 10.4736C16.6719 8.92652 16.1338 7.42756 15.1498 6.23366C14.1658 5.03976 12.7973 4.22525 11.2786 3.92973C9.76 3.6342 8.18586 3.87605 6.82599 4.61384C5.46612 5.35163 4.40519 6.53942 3.82502 7.97364H2.05002C2.64701 6.07397 3.9045 4.45087 5.59479 3.39824C7.28508 2.34561 9.29643 1.93302 11.2646 2.2352C13.2328 2.53738 15.0278 3.53435 16.3244 5.04557C17.6211 6.5568 18.3337 8.48238 18.3334 10.4736Z"></path>
</svg>