<svg xmlns="http://www.w3.org/2000/svg" width="77" height="23" viewBox="0 0 77 23" fill="none"><path d="M41.8145 8.94787C38.3245 10.2484 38.5886 15.2187 38.5886 15.2187L32.3065 15.2187C32.3065 15.2187 31.6775 9.50452 35.7965 5.52947C39.9156 1.55442 69.0328 3.58768 69.0328 3.58768L69.3152 0.5L76.7659 5.84386L67.8902 11.1873L68.2566 8.12276C68.2566 8.12276 45.3045 7.64736 41.8145 8.94787Z" fill="url(#paint0_linear_555_15496)"></path><path fill-rule="evenodd" clip-rule="evenodd" d="M23.7688 3.77502H29.4972L26.7105 17.8596L30.1969 17.9269L29.5187 22.4731H25.7977H24.2873H20.0693L23.7688 3.77502ZM31.443 22.4731H31.9731H40.6903L40.6903 22.5001C41.4886 22.425 42.3004 22.389 43.1051 22.3534H43.1051C45.3898 22.2522 47.6173 22.1536 49.3176 21.1692C51.6166 19.838 52.428 15.8707 52.428 15.8707H46.1803C46.1803 15.8707 46.045 18.8723 40.6903 18.0976V18.1214L32.286 17.9672L32.1157 17.964L31.443 22.4731Z" fill="url(#paint1_linear_555_15496)"></path><path d="M4.8784 3.70251H12.3399C16.9749 3.70251 20.1363 6.37852 20.1363 10.942C20.1363 17.6126 16.0238 22.357 9.90185 22.357H0.765869L4.8784 3.70251ZM8.99093 7.50322L6.56628 18.5563H9.23206C12.648 18.5563 15.0861 15.8415 15.0861 11.5366C15.0861 9.04161 13.6929 7.50322 11.2146 7.50322H8.99093Z" fill="url(#paint2_linear_555_15496)"></path><path d="M56.997 21.6059V15.9103H55.9856V14.473H56.997V13.9315C56.997 12.5277 57.6827 11.8726 59.4422 11.8726C59.8163 11.8726 60.2389 11.9127 60.4744 11.9595V13.2497C60.3289 13.2229 60.128 13.2096 59.9271 13.2096C59.2621 13.2096 58.9712 13.4903 58.9712 13.9984V14.473H60.4467V15.9103H59.0197V21.6059H56.997Z" fill="white"></path><path d="M68.3713 14.4396V21.6059H66.4179V20.3157H66.3763C66.0092 21.2182 65.2749 21.7396 64.1527 21.7396C62.5456 21.7396 61.4788 20.7302 61.4788 19.0589V14.4396H63.5015V18.6511C63.5015 19.6071 63.9934 20.1151 64.887 20.1151C65.7875 20.1151 66.3486 19.4934 66.3486 18.5442V14.4396H68.3713Z" fill="white"></path><path d="M69.6875 21.6059V14.4396H71.6409V15.7164H71.6825C72.0773 14.8273 72.8601 14.3059 74.0031 14.3059C75.6518 14.3059 76.58 15.3086 76.58 16.9866V21.6059H74.5573V17.3944C74.5573 16.4585 74.1001 15.9237 73.1926 15.9237C72.2852 15.9237 71.7102 16.5654 71.7102 17.4946V21.6059H69.6875Z" fill="white"></path><defs><linearGradient id="paint0_linear_555_15496" x1="59.5346" y1="7.85935" x2="60.6018" y2="16.1866" gradientUnits="userSpaceOnUse"><stop stop-color="#0DC2FF"></stop><stop offset="1" stop-color="#00F0FF"></stop></linearGradient><linearGradient id="paint1_linear_555_15496" x1="39.8963" y1="13.1375" x2="42.1948" y2="23.3901" gradientUnits="userSpaceOnUse"><stop stop-color="#0DC2FF"></stop><stop offset="1" stop-color="#00F0FF"></stop></linearGradient><linearGradient id="paint2_linear_555_15496" x1="12.6346" y1="13.0298" x2="16.1479" y2="22.4462" gradientUnits="userSpaceOnUse"><stop stop-color="#0DC2FF"></stop><stop offset="1" stop-color="#00F0FF"></stop></linearGradient></defs></svg>