<svg version="1.1" xmlns="http://www.w3.org/2000/svg" x="0px" y="0px" viewBox="0 0 100 100"
  enable-background="new 0 0 100 100" width="24" height="24" fill="#0EC2FF">
  <g>
    <path
      d="M50.28,38.203c-0.392-0.384-1.02-0.378-1.407,0.01L31.54,55.379C31.353,55.566,31,55.82,31,56.084v18   C31,74.637,31.946,75,32.499,75h34.666C67.717,75,68,74.637,68,74.084v-18c0-0.269-0.026-0.527-0.219-0.715L50.28,38.203z"></path>
    <path
      d="M74.54,54.546L50.29,30.212c-0.188-0.188-0.459-0.282-0.711-0.294c-0.268,0.001-0.47,0.108-0.658,0.299L40,39.347v-5.325   C40,33.47,39.446,33,38.894,33h-5.999C32.342,33,32,33.47,32,34.022v13.464l-6.996,7.064c-0.387,0.394-0.407,1.028-0.014,1.415   c0.395,0.387,1.21,0.381,1.598-0.012L34,48.604c0,0,0-0.001,0-0.002L49.785,32.34l23.438,23.617   c0.195,0.196,0.402,0.294,0.659,0.294c0.255,0,0.486-0.097,0.681-0.292C74.953,55.57,74.93,54.938,74.54,54.546z"></path>
  </g>
</svg>