<svg width="18" height="18" viewBox="0 0 18 18" fill="none" xmlns="http://www.w3.org/2000/svg">
<g clip-path="url(#clip0_708_226)">
<rect width="18" height="18" rx="9" fill="white"/>
<g clip-path="url(#clip1_708_226)">
<path d="M-3 0.000488281H24V18.0001H-3V0.000488281Z" fill="#D80027"/>
<path d="M7.36974 0.000488281V18.0001H-3V0.000488281H7.36974Z" fill="#6DA544"/>
<path d="M7.36975 12.375C9.23371 12.375 10.7448 10.864 10.7448 9C10.7448 7.13604 9.23371 5.625 7.36975 5.625C5.50579 5.625 3.99475 7.13604 3.99475 9C3.99475 10.864 5.50579 12.375 7.36975 12.375Z" fill="#FFDA44"/>
<path d="M5.47113 7.3125V9.42193C5.47113 10.4704 6.3211 11.3204 7.36957 11.3204C8.41803 11.3204 9.26801 10.4704 9.26801 9.42193V7.3125H5.47113Z" fill="#D80027"/>
<path d="M7.36957 10.0547C7.02062 10.0547 6.73676 9.77082 6.73676 9.42188V8.57812H8.00243V9.42188C8.00238 9.77077 7.71846 10.0547 7.36957 10.0547Z" fill="white"/>
</g>
</g>
<defs>
<clipPath id="clip0_708_226">
<rect width="18" height="18" rx="9" fill="white"/>
</clipPath>
<clipPath id="clip1_708_226">
<rect width="27" height="18" fill="white" transform="translate(-3)"/>
</clipPath>
</defs>
</svg>
