<svg xmlns="http://www.w3.org/2000/svg" width="19" height="19" viewBox="0 0 19 19" fill="none">
  <path
    d="M9.76587 18.4736C14.7364 18.4736 18.7659 14.4442 18.7659 9.47363C18.7659 4.50307 14.7364 0.473633 9.76587 0.473633C4.79531 0.473633 0.765869 4.50307 0.765869 9.47363C0.765869 14.4442 4.79531 18.4736 9.76587 18.4736Z"
    fill="#F0F0F0"></path>
  <path
    d="M18.2061 12.6041C18.5679 11.6291 18.7659 10.5746 18.7659 9.47368C18.7659 8.3728 18.5679 7.31825 18.2061 6.34326H1.32566C0.963904 7.31825 0.765869 8.3728 0.765869 9.47368C0.765869 10.5746 0.963904 11.6291 1.32566 12.6041L9.76587 13.3867L18.2061 12.6041Z"
    fill="#0052B4"></path>
  <path
    d="M9.76589 18.4736C13.6356 18.4736 16.9345 16.0312 18.2061 12.604H1.32568C2.59732 16.0312 5.89621 18.4736 9.76589 18.4736Z"
    fill="#D80027"></path>
</svg>