<svg xmlns="http://www.w3.org/2000/svg" width="18" height="19" viewBox="0 0 18 19" fill="#5D89DF">
  <path fill-rule="evenodd" clip-rule="evenodd"
    d="M8.25 2C4.52208 2 1.5 5.02208 1.5 8.75C1.5 12.4779 4.52208 15.5 8.25 15.5C9.84376 15.5 11.3085 14.9476 12.4633 14.0239L15.2199 16.7804C15.5128 17.0732 15.9876 17.0732 16.2805 16.7803C16.5734 16.4874 16.5734 16.0125 16.2805 15.7197L13.5239 12.9633C14.4476 11.8085 15 10.3438 15 8.75C15 5.02208 11.9779 2 8.25 2ZM3 8.75C3 5.85051 5.35051 3.5 8.25 3.5C11.1495 3.5 13.5 5.85051 13.5 8.75C13.5 11.6495 11.1495 14 8.25 14C5.35051 14 3 11.6495 3 8.75Z"></path>
</svg>