<svg width="18" height="18" viewBox="0 0 18 18" fill="none" xmlns="http://www.w3.org/2000/svg">
<g clip-path="url(#clip0_2464_111)">
<path d="M0.33296 11.6141C1.44606 15.3231 4.88931 18.0254 8.96447 18.0254C13.9403 18.0254 17.9741 13.9958 17.9741 9.02539C17.9741 4.05484 13.9403 0.0253906 8.96447 0.0253906C4.18964 0.0253906 0.282692 3.73578 -0.0258789 8.42747C-0.0258789 9.77541 -0.0258789 10.3379 0.33296 11.6141Z" fill="url(#paint0_linear_2464_111)"/>
<path d="M8.50426 6.86573L6.3008 10.0666C5.78136 10.043 5.25846 10.19 4.8244 10.4754L-0.0141051 8.48364C-0.0141051 8.48364 -0.126065 10.3255 0.340518 11.6982L3.76108 13.1096C3.93282 13.8771 4.45934 14.5503 5.23615 14.8741C6.50707 15.4051 7.97248 14.7999 8.50117 13.5285C8.63879 13.1961 8.70294 12.8475 8.69362 12.4997L11.9237 10.2482C13.8105 10.2482 15.344 8.71011 15.344 6.82122C15.344 4.93222 13.8105 3.39551 11.9237 3.39551C10.1014 3.39551 8.40212 4.98659 8.50426 6.86573ZM7.9748 13.3074C7.5656 14.2898 6.43668 14.7559 5.45534 14.347C5.00264 14.1584 4.66085 13.8129 4.46367 13.4009L5.57709 13.8624C6.3008 14.1638 7.13108 13.8206 7.4319 13.0972C7.73369 12.3729 7.39134 11.5413 6.66802 11.2399L5.51705 10.7629C5.96115 10.5945 6.46606 10.5883 6.93779 10.7846C7.41332 10.9825 7.78235 11.3551 7.97788 11.8311C8.17348 12.3073 8.17271 12.8328 7.9748 13.3074ZM11.9237 9.10431C10.6677 9.10431 9.64513 8.08018 9.64513 6.82122C9.64513 5.56329 10.6677 4.53889 11.9237 4.53889C13.1806 4.53889 14.2031 5.56329 14.2031 6.82122C14.2031 8.08018 13.1806 9.10431 11.9237 9.10431ZM10.2163 6.81775C10.2163 5.87073 10.9831 5.10258 11.9276 5.10258C12.8729 5.10258 13.6396 5.87073 13.6396 6.81775C13.6396 7.76489 12.8729 8.53233 11.9276 8.53233C10.9831 8.53233 10.2163 7.76489 10.2163 6.81775Z" fill="white"/>
</g>
<defs>
<linearGradient id="paint0_linear_2464_111" x1="8.97411" y1="0.0253906" x2="8.97411" y2="18.0254" gradientUnits="userSpaceOnUse">
<stop stop-color="#111D2E"/>
<stop offset="0.21248" stop-color="#051839"/>
<stop offset="0.40695" stop-color="#0A1B48"/>
<stop offset="0.5811" stop-color="#132E62"/>
<stop offset="0.7376" stop-color="#144B7E"/>
<stop offset="0.87279" stop-color="#136497"/>
<stop offset="1" stop-color="#1387B8"/>
</linearGradient>
<clipPath id="clip0_2464_111">
<rect width="18" height="18" fill="white"/>
</clipPath>
</defs>
</svg>
