<svg width="100" height="100" viewBox="0 0 100 100" fill="none" xmlns="http://www.w3.org/2000/svg">
<path d="M87.3874 16.9482C82.7624 15.4899 77.679 14.8649 72.804 14.8649C64.679 14.8649 55.929 16.5315 49.8874 21.1149C43.8457 16.5315 35.0957 14.8649 26.9707 14.8649C18.8457 14.8649 10.0957 16.5315 4.05405 21.1149V82.1565C4.05405 83.1982 5.09572 84.2399 6.13739 84.2399C6.55405 84.2399 6.76239 84.0315 7.17905 84.0315C12.8041 81.3232 20.9291 79.4482 26.9707 79.4482C35.0957 79.4482 43.8457 81.1149 49.8874 85.6982C55.5124 82.1565 65.7207 79.4482 72.804 79.4482C79.679 79.4482 86.7624 80.6982 92.5957 83.8232C93.0124 84.0315 93.2207 84.0315 93.6374 84.0315C94.679 84.0315 95.7207 82.9899 95.7207 81.9482V21.1149C93.2207 19.2399 90.5124 17.9899 87.3874 16.9482ZM87.3874 73.1982C82.804 71.7399 77.804 71.1149 72.804 71.1149C65.7207 71.1149 55.5124 73.8232 49.8874 77.3649V29.4482C55.5124 25.9065 65.7207 23.1982 72.804 23.1982C77.804 23.1982 82.804 23.8232 87.3874 25.2815V73.1982Z" fill="white"/>
<path d="M72.8041 39.8649C76.4707 39.8649 80.0124 40.2399 83.2207 40.9482V34.6149C79.929 33.9899 76.3874 33.6149 72.8041 33.6149C65.7207 33.6149 59.3041 34.8232 54.0541 37.0732V43.9899C58.7624 41.3232 65.3041 39.8649 72.8041 39.8649Z" fill="white"/>
<path d="M54.0541 48.1565V55.0732C58.7624 52.4065 65.3041 50.9482 72.804 50.9482C76.4707 50.9482 80.0124 51.3232 83.2207 52.0315V45.6982C79.929 45.0732 76.3874 44.6982 72.804 44.6982C65.7207 44.6982 59.3041 45.9482 54.0541 48.1565Z" fill="white"/>
<path d="M72.804 55.8232C65.7207 55.8232 59.3041 57.0315 54.0541 59.2815V66.1982C58.7624 63.5315 65.3041 62.0732 72.804 62.0732C76.4707 62.0732 80.0124 62.4482 83.2207 63.1565V56.8231C79.929 56.1565 76.3874 55.8232 72.804 55.8232Z" fill="white"/>
</svg>
