<svg width="101" height="101" viewBox="0 0 101 101" fill="none" xmlns="http://www.w3.org/2000/svg">
<path d="M55.55 10.1V23.5835L50.5 28.6335L45.45 23.5835V10.1H55.55ZM90.9 45.45V55.55H77.4165L72.3665 50.5L77.4165 45.45H90.9ZM23.5835 45.45L28.6335 50.5L23.5835 55.55H10.1V45.45H23.5835ZM50.5 72.3665L55.55 77.4165V90.9H45.45V77.4165L50.5 72.3665ZM65.65 0H35.35V27.775L50.5 42.925L65.65 27.775V0ZM101 35.35H73.225L58.075 50.5L73.225 65.65H101V35.35ZM27.775 35.35H0V65.65H27.775L42.925 50.5L27.775 35.35ZM50.5 58.075L35.35 73.225V101H65.65V73.225L50.5 58.075Z" fill="white"/>
</svg>
