<svg width="28" height="28" viewBox="0 0 32 32" fill="none" xmlns="http://www.w3.org/2000/svg">
<path d="M8.73077 32C8.61275 32 8.47506 32 8.35705 31.9803C8.062 31.9409 7.78663 31.8818 7.47191 31.7834C6.92116 31.6062 6.44909 31.3502 6.11471 31.1532C5.36727 30.72 4.60015 30.1883 3.7937 29.5188C3.43965 29.2234 3.08559 28.9083 2.75121 28.5932L2.47583 28.3175C2.27914 28.1403 2.10211 27.9434 1.96442 27.7268C1.70872 27.3329 1.49235 26.8209 1.47268 26.1514C1.45302 25.9348 1.43335 25.7182 1.43335 25.4818C1.43335 25.0092 1.45302 24.4972 1.53169 24.0049C1.66938 22.9809 2.00376 22.0751 2.25947 21.3858C2.27914 21.3268 2.29881 21.2677 2.31848 21.2086C2.2398 21.0314 2.18079 20.8345 2.10211 20.6375C1.74806 19.6135 1.51202 18.4714 1.39401 17.3292C1.27599 16.128 1.31533 14.9071 1.49235 13.7058C1.53169 13.4498 1.57103 13.1938 1.63004 12.9575C1.15797 12.2683 0.567883 11.2837 0.194161 10.1415V10.1218C0.115482 9.88554 -0.0812139 9.29477 0.0368037 8.54646C0.076143 8.27077 0.135152 7.99508 0.2335 7.69969C0.410526 7.14831 0.666231 6.69538 0.862927 6.36062C1.29566 5.61231 1.82674 4.864 2.47583 4.05662C2.77088 3.70215 3.06592 3.34769 3.38064 3.03262L3.65601 2.75692C3.7937 2.59938 3.95105 2.46154 4.12808 2.34338C4.52147 2.048 5.07222 1.792 5.81967 1.77231C6.0557 1.75262 6.31141 1.73292 6.56711 1.73292H6.58678C7.07852 1.73292 7.6096 1.77231 8.12101 1.85108C8.90779 1.96923 9.6159 2.18585 10.2453 2.42215C10.6584 2.24492 11.0911 2.08738 11.5435 1.92985C12.6057 1.57538 13.7465 1.33908 14.8874 1.26031C16.0872 1.16185 17.3067 1.22092 18.4672 1.41785C18.7426 1.45723 19.018 1.51631 19.2933 1.57538C20.2178 0.945231 21.0636 0.492308 21.9487 0.216615H21.9684C22.1651 0.137846 22.5978 0 23.1683 0C23.2863 0 23.424 0 23.542 0.0196923C23.837 0.0590769 24.1124 0.118154 24.4271 0.216615C24.9779 0.393846 25.4499 0.649846 25.7843 0.846769C26.5318 1.28 27.2989 1.81169 28.1053 2.48123C28.4594 2.77662 28.8134 3.09169 29.1478 3.40677L29.4232 3.68246C29.5609 3.80062 29.6986 3.93846 29.7969 4.096C30.151 4.54892 30.4263 5.19877 30.446 6.10462C30.4657 6.41969 30.4657 6.75446 30.446 7.08923C30.4067 7.81785 30.3083 8.50708 30.1313 9.13723C29.9936 9.60985 29.8363 10.0825 29.6592 10.5551C30.0133 11.4412 30.269 12.3471 30.446 13.2726C30.8001 15.2222 30.7607 17.2308 30.328 19.1606C30.5837 19.5348 30.8197 19.8892 31.0164 20.2437C31.3508 20.8345 31.6262 21.4449 31.8229 22.0751C31.9016 22.3114 32.0786 22.9022 31.9606 23.6898C31.9212 23.9655 31.8426 24.2215 31.7442 24.5169C31.3901 25.5212 30.8394 26.3483 30.3477 27.0375C29.8166 27.7858 29.2068 28.5145 28.5774 29.184L28.3414 29.4203C28.2037 29.5778 28.0463 29.7157 27.8693 29.8535C27.4759 30.1489 26.9252 30.3852 26.1777 30.4246C25.9417 30.4443 25.686 30.464 25.4303 30.464H25.4106C24.8795 30.464 24.3484 30.4246 23.7977 30.3262C22.9126 30.1883 22.1258 29.9126 21.4177 29.6369C21.0439 29.7945 20.6505 29.9323 20.2768 30.0505C19.1753 30.3852 18.0148 30.6018 16.8543 30.6609C15.6545 30.7397 14.435 30.6412 13.2548 30.4246C13.1171 30.4049 12.9597 30.3655 12.822 30.3458C11.7992 31.0745 10.8944 31.5471 9.95028 31.8622H9.93061C9.73392 31.8425 9.30119 32 8.73077 32ZM4.83619 26.4074L6.92116 27.136C7.09819 26.624 7.11786 26.0726 6.99984 25.5606C6.99984 25.6 6.99984 25.6591 7.01951 25.6985C7.01951 25.7575 7.03918 25.8363 7.03918 25.9151C7.01951 25.5212 6.88183 25.0092 6.52777 24.5366C6.39009 24.3594 6.23273 24.2018 6.0557 24.064L6.15405 24.1428L6.33108 24.32C6.17372 24.1625 5.99669 24.0049 5.8 23.8671L4.83619 26.4074ZM24.3288 25.4818C24.1714 25.6394 24.014 25.7969 23.8764 26.0135L26.217 26.9194V24.7335C26.0007 24.7335 25.7843 24.7532 25.5876 24.8123C25.627 24.8123 25.6663 24.8123 25.7056 24.8123C25.7646 24.8123 25.8433 24.7926 25.922 24.7926C25.5679 24.8123 25.0959 24.9305 24.6631 25.2062C24.4271 25.3637 24.2304 25.5409 24.0534 25.7772L24.1321 25.6788L24.3288 25.4818ZM7.03918 24.9698C7.13753 25.0486 7.23588 25.1274 7.33423 25.2258C7.84564 25.6591 8.31771 25.9938 8.75044 26.2498C9.02581 26.112 9.34053 25.9151 9.67491 25.6591C9.77326 25.6 9.85194 25.5212 9.95028 25.4425C10.0093 25.4031 10.0486 25.344 10.1076 25.3046C10.1273 25.2849 10.1666 25.2455 10.1863 25.2258L11.4058 23.9852L13.0581 24.5563C13.1171 24.576 13.1761 24.5957 13.2154 24.6154C13.5695 24.7335 13.9235 24.8123 14.2776 24.8911C15.0054 25.0289 15.7725 25.088 16.5199 25.0289C17.228 24.9895 17.9558 24.8517 18.6246 24.6548C18.959 24.5563 19.2933 24.4382 19.6081 24.2806C19.7654 24.2215 19.9228 24.1428 20.0605 24.064C20.4539 23.8671 20.9063 23.7489 21.3587 23.7489C22.0668 23.7489 22.5978 24.0049 22.8535 24.1428C22.9322 24.1822 23.0109 24.2215 23.1092 24.2412C23.601 24.4382 24.1714 24.6745 24.6828 24.7532C24.7615 24.7729 24.8598 24.7729 24.9385 24.7926C25.2336 24.4578 25.5089 24.1034 25.7646 23.7489C25.922 23.5323 26.0794 23.3157 26.217 23.0991C26.1974 23.0597 26.1777 23.0203 26.1384 22.9612C26.0007 22.7249 25.8433 22.4886 25.6466 22.1932C25.5876 22.0948 25.5089 22.016 25.4303 21.9175C25.3909 21.8782 25.3713 21.8388 25.3319 21.7994C24.5255 21.0117 24.2501 19.8892 24.6238 18.8258C24.6435 18.7668 24.6631 18.7077 24.6828 18.6683C25.1352 17.2505 25.2139 15.7342 24.9582 14.2769C24.8205 13.5877 24.6238 12.8985 24.3288 12.2486C24.3091 12.1895 24.2698 12.1305 24.2501 12.0714C23.601 10.8702 23.8764 9.84615 24.1124 9.35385C24.2107 9.15692 24.2894 8.94031 24.3681 8.74339C24.5255 8.36923 24.6435 7.97538 24.7615 7.62092C24.8008 7.44369 24.8402 7.26646 24.8598 7.04985C24.7615 6.97108 24.6631 6.89231 24.5648 6.79385C24.0337 6.36062 23.5813 6.02585 23.1486 5.76985C22.8732 5.92738 22.5585 6.12431 22.2044 6.36062C22.1061 6.43938 22.0077 6.51815 21.9094 6.59692C21.8897 6.61662 21.8504 6.63631 21.8307 6.67569C21.2996 7.18769 20.5915 7.46339 19.8638 7.46339C19.5097 7.46339 19.1753 7.40431 18.8409 7.26646C18.7623 7.24677 18.6836 7.20738 18.6049 7.18769C18.2509 7.08923 17.8968 6.99077 17.5231 6.93169C16.7953 6.81354 16.0282 6.77415 15.2807 6.83323C14.5726 6.89231 13.8645 7.03015 13.1958 7.24677C12.8614 7.34523 12.5467 7.48308 12.232 7.62092C12.0746 7.68 11.9369 7.75877 11.7796 7.83754L11.7009 7.87692C11.2878 8.11323 10.7961 8.23138 10.324 8.23138C9.89127 8.23138 9.45854 8.13292 9.04548 7.936C8.94713 7.89662 8.86845 7.85723 8.77011 7.81785C8.29804 7.62092 7.72762 7.40431 7.23588 7.34523C7.1572 7.32554 7.07852 7.32554 7.01951 7.30585C6.94083 7.40431 6.86216 7.50277 6.78348 7.58154C6.35075 8.11323 6.01636 8.56615 5.76066 9.01908C5.89835 9.29477 6.09504 9.59015 6.33108 9.94462C6.39009 10.0431 6.46876 10.1415 6.54744 10.2203C6.58678 10.2794 6.64579 10.3188 6.68513 10.3778L7.82597 11.5791L7.33423 13.1545C7.29489 13.2529 7.27522 13.3514 7.23588 13.4498C7.13753 13.8043 7.05885 14.1785 6.99984 14.5526C6.88183 15.3009 6.86216 16.0492 6.94083 16.8172C6.99984 17.5262 7.1572 18.2351 7.39324 18.9046C7.51125 19.2394 7.64894 19.5545 7.78663 19.8695C7.8063 19.9089 7.82597 19.9483 7.84564 19.9877C8.2587 20.8345 8.2587 21.7797 7.82597 22.6265C7.78663 22.7052 7.74729 22.784 7.72762 22.8628C7.64894 23.0597 7.55059 23.2566 7.47191 23.4535C7.31456 23.8868 7.11786 24.3988 7.05885 24.8517C7.05885 24.8714 7.03918 24.9305 7.03918 24.9698ZM25.5483 7.64062C25.7056 7.79815 25.8827 7.95569 26.099 8.11323L27.0628 5.57292L24.9779 4.84431C24.8008 5.35631 24.7812 5.90769 24.8992 6.41969C24.8992 6.4 24.8992 6.38031 24.8992 6.36062C24.8992 6.30154 24.8992 6.20308 24.8992 6.10462V6.08492C24.8992 6.38031 24.9975 6.87262 25.3122 7.34523C25.4696 7.56185 25.6466 7.75877 25.863 7.936L25.7646 7.85723L25.5483 7.64062ZM5.76066 5.17908V7.36492C5.97702 7.36492 6.19339 7.34523 6.39009 7.28615C6.35075 7.28615 6.31141 7.28615 6.27207 7.28615C6.21306 7.28615 6.13438 7.30585 6.0557 7.30585C6.40975 7.28615 6.88183 7.168 7.31456 6.89231C7.55059 6.73477 7.74729 6.55754 7.92431 6.32123L7.84564 6.41969L7.66861 6.61662C7.82597 6.45908 7.98332 6.28185 8.12101 6.08492L5.76066 5.17908Z" fill="black"/>
<path d="M11.0714 17.408L11.2091 22.9809L9.83219 21.8584C8.29796 24.3593 7.80622 26.7815 8.53399 28.5735L8.7897 29.2037L8.16027 28.928C6.72439 28.2978 5.4262 27.4116 4.34437 26.2695L4.28536 26.2104L4.26569 26.112C4.18701 25.4227 4.22635 24.6744 4.40338 23.9064V23.8867C4.65908 22.9218 5.0328 21.9569 5.50488 20.992C5.79992 20.3815 6.15397 19.771 6.54736 19.1803L5.34752 18.1957L11.0714 17.408Z" fill="#AFAA95"/>
<path d="M20.8276 14.592L20.6899 9.01903L22.0668 10.1415C23.601 7.64057 24.0928 5.21842 23.365 3.42642L23.1093 2.79626L23.7387 3.07196C25.1746 3.70211 26.4728 4.58826 27.5546 5.73042L27.6136 5.7895L27.6333 5.88796C27.712 6.57719 27.6727 7.32549 27.4956 8.09349V8.11319C27.2399 9.07811 26.8662 10.043 26.3941 11.008C26.0991 11.6184 25.745 12.2289 25.3516 12.8196L26.5515 13.8043L20.8276 14.592Z" fill="#AFAA95"/>
<path d="M17.4053 20.7556L22.9718 20.6178L21.8506 21.9963C24.3486 23.5323 26.768 24.0246 28.5579 23.296L29.1874 23.04L28.912 23.6701C28.2826 25.1076 27.3974 26.4073 26.2566 27.4904L26.1976 27.5495L26.0992 27.5692C25.4108 27.648 24.6634 27.6086 23.8962 27.4313H23.8766C22.9128 27.1753 21.949 26.8012 20.9851 26.3286C20.3754 26.0332 19.7656 25.6787 19.1755 25.2849L18.1921 26.4861L17.4053 20.7556Z" fill="#AFAA95"/>
<path d="M14.573 11.3428L9.00647 11.4807L10.1276 10.1022C7.6296 8.56621 5.21024 8.0739 3.4203 8.80252L2.81055 9.05852L3.08592 8.42836C3.71535 6.99082 4.60048 5.69113 5.74132 4.60805L5.80033 4.54898L5.89867 4.52928C6.58711 4.45052 7.33456 4.4899 8.10167 4.66713H8.12134C9.08515 4.92313 10.049 5.29728 11.0128 5.7699C11.6225 6.06528 12.2323 6.41975 12.8224 6.81359L13.8059 5.61236L14.573 11.3428Z" fill="#AFAA95"/>
<path d="M16.0085 27.8253C22.5808 27.8253 27.9086 22.4912 27.9086 15.9114C27.9086 9.33157 22.5808 3.99756 16.0085 3.99756C9.43626 3.99756 4.1084 9.33157 4.1084 15.9114C4.1084 22.4912 9.43626 27.8253 16.0085 27.8253Z" fill="#AFAA95"/>
<path d="M11.6617 11.717C10.9732 11.4019 10.4618 11.0868 9.9504 10.7126C9.16362 10.1613 8.43584 9.5508 7.82608 8.90095C6.33119 7.38464 5.54441 5.82895 5.76078 4.54895L5.30837 5.04126C4.22655 6.18341 2.79067 8.19203 2.771 9.05849C2.79067 9.15695 2.79067 9.15695 2.79067 9.15695C2.98736 9.82649 3.30208 10.496 3.75448 11.1459V11.1656C4.34456 12.1108 5.50507 13.6665 9.63569 15.4782L8.90791 16.8566L14.4744 15.36L12.4878 10.1416L11.6617 11.717Z" fill="white"/>
<path d="M20.3162 20.3815C21.0046 20.6966 21.516 21.0116 22.0274 21.3858C22.8142 21.9372 23.542 22.5476 24.1517 23.1975C25.6466 24.7138 26.4334 26.2695 26.2171 27.5495L26.6695 27.0769C27.7513 25.9347 29.1872 23.9261 29.2068 23.0596C29.1872 22.9612 29.1872 22.9612 29.1872 22.9612C28.9905 22.2916 28.6758 21.6221 28.2234 20.9722V20.9526C27.6333 20.0073 26.4728 18.4516 22.3421 16.6399L23.0699 15.2615L17.5034 16.7581L19.5097 21.9175L20.3162 20.3815Z" fill="white"/>
<path d="M20.4539 11.6775C20.7687 10.9883 21.0834 10.4763 21.4571 9.9643C22.0078 9.17661 22.6176 8.448 23.2667 7.83753C24.7813 6.34092 26.3352 5.55323 27.6137 5.76984L27.1416 5.31692C26.0008 4.23384 23.9945 2.7963 23.129 2.77661C23.0307 2.7963 23.0307 2.7963 23.0307 2.7963C22.3619 2.99323 21.6931 3.3083 21.044 3.76123H21.0244C20.0802 4.352 18.5263 5.51384 16.7167 9.64923L15.3398 8.92061L16.8347 14.4935L22.0275 12.5243L20.4539 11.6775Z" fill="white"/>
<path d="M11.4454 20.3225C11.1307 21.0117 10.816 21.5237 10.4422 22.0357C9.89148 22.8234 9.28172 23.552 8.63263 24.1625C7.11807 25.6591 5.56417 26.4468 4.28564 26.2302L4.75772 26.6831C5.89855 27.7662 7.90485 29.2037 8.77031 29.2234C8.86866 29.2037 8.86866 29.2037 8.86866 29.2037C9.53743 29.0068 10.2062 28.6917 10.8553 28.2388H10.875C11.8191 27.648 13.373 26.4862 15.1826 22.3508L16.5595 23.0794L15.0646 17.5065L9.89148 19.4757L11.4454 20.3225Z" fill="white"/>
</svg>
